inDegrees=yes
name=ik_MT_2026-09-08_17h41_01210270-000-000_orientations
DataType=double
version=3
OpenSimVersion=4.5
endheader
time	pelvis_tilt	pelvis_list	pelvis_rotation	pelvis_tx	pelvis_ty	pelvis_tz	hip_flexion_r	hip_adduction_r	hip_rotation_r	knee_angle_r	knee_angle_r_beta	ankle_angle_r	subtalar_angle_r	mtp_angle_r	hip_flexion_l	hip_adduction_l	hip_rotation_l	knee_angle_l	knee_angle_l_beta	ankle_angle_l	subtalar_angle_l	mtp_angle_l	lumbar_extension	lumbar_bending	lumbar_rotation	arm_flex_r	arm_add_r	arm_rot_r	elbow_flex_r	pro_sup_r	wrist_flex_r	wrist_dev_r	arm_flex_l	arm_add_l	arm_rot_l	elbow_flex_l	pro_sup_l	wrist_flex_l	wrist_dev_l
0	0.08923465068828955	-0.03311265342015687	159.7301335747347	0	0.9399999999999999	0	0.06308610033348963	0.005258252231726858	0.005179304851190153	-0.03794321304667433	-0.0006622339964501359	0.02455138379785453	0	0	0.05933276505756493	0.006001721755706998	0.01895701341197615	-0.04005185412419368	-0.0006990367259956496	0.0221776863204911	0	0	0.2114650800423475	-1.025513386598745e-05	0.007854321761820124	-0.5460422744709051	-0.08927223056329567	-0.009669592656228477	0.8484045923397094	15.3660651324375	0	0	-0.5529011734574306	-0.09391624413769188	-0.008944285466073624	0.857678484196433	15.3660651324375	0	0
0.025	0.02175355424546967	-0.01954541247666543	159.7420424181015	0	0.9399999999999999	0	0.03379324458506743	0.006883216163550964	-0.02719314590906178	-0.007771217120600974	-0.0001356333256418403	0.003919347015024152	0	0	0.02468879301155549	-0.001286145952894922	-0.003964131471251867	0.005807880200270212	0.0001013666320561029	0.001873710475355395	0	0	0.171161005658853	-0.01951417698511794	0.001560218106310984	-0.5671382438472473	-0.08936625592795208	-0.004027134417916791	0.8664902438991737	19.72643742390076	0	0	-0.5668993178254395	-0.05145630540100226	-0.01329347681455582	0.860219972714607	19.72643742390076	0	0
0.05	0.04975646271260576	-0.06139923075247922	159.7296359353566	0	0.9399999999999999	0	0.06500068470601351	-0.0416692623796814	0.01488062575529061	-0.0146627163966503	-0.0002559126784077065	-0.009373221048292229	0	0	0.0824041308716493	0.02703336585964183	-0.0009245576249879641	-0.001540394940118864	-2.688496348613507e-05	-0.004609278820443347	0	0	0.1112296963178552	-0.04471005090171778	0.01370886646203439	-0.4440442673206271	-0.09593123383563716	-0.002059221141360048	0.850963294620399	23.32399122748886	0	0	-0.4339972118398333	-0.04698975990483668	-0.01496508235057408	0.8492876519268616	23.32399122748886	0	0
0.075	0.01255026846840353	-0.05606175824697595	159.7127457080311	0	0.9399999999999999	0	0.02614216709376065	-0.05097563724190777	0.04325371837597045	-0.002339576076010879	-4.083330562727896e-05	-0.01111844160504125	0	0	0.06249185099086488	0.02864518266460767	-0.02487486302748523	0.004656758028111246	8.127576005921989e-05	0.008703393395206076	0	0	0.03022199796312047	-0.04809970267643399	0.016552419106985	-0.3869315046419171	-0.09946193875457328	-0.004871073342639052	0.8309499685618734	27.31100792445243	0	0	-0.3762514244885735	-0.04822416544188144	-0.01011410647609725	0.8555007576630713	27.31100792445243	0	0
0.1	0.07520835833248198	-0.097543802812353	159.7047400769539	0	0.9399999999999999	0	0.06367628577195467	-0.06545520614471256	0.06599265160905114	-0.0563988050801048	-0.000984344842838333	0.04232809564241367	0	0	0.08450644275436175	0.04002331018472172	-0.03792011936259699	-0.0317096011164275	-0.0005534369439757298	0.05969461490521514	0	0	0.2080013381494635	-0.0578018020876175	0.009020559700467671	-0.4876522362722802	-0.1127393138190178	0.02222503875755007	0.8084222653756471	30.54232498250764	0	0	-0.4708221850100585	-0.03497124948693211	-0.01607910300779873	0.8596015054275552	30.54232498250764	0	0
0.125	0.01565050578363932	-0.1021544462712574	159.6903151178774	0	0.9399999999999999	0	0.0436167616285591	-0.09762574608532301	0.09013451980392177	-0.0298206994003462	-0.0005204693897835398	0.02084216365052794	0	0	0.07123956564073827	0.06792379604249191	-0.0420418052273855	0.01459348855305337	0.0002547044246028844	0.04065613742481385	0	0	0.07583655568253574	-0.07624661069642079	0.02430396529349549	-0.4195170731529776	-0.1019389584457736	0.06424887768836582	0.8146946764703338	32.62138903019947	0	0	-0.3655325587667073	-0.01857264192922506	-0.01515960933468826	0.8548816509252971	32.62138903019947	0	0
0.15	0.007822516900893892	-0.1153630641862821	159.6623095550429	0	0.9399999999999999	0	0.02102483816973787	-0.1134298845346079	0.1006736530828147	-0.04015610101127215	-0.0007008561774101236	0.02871817717935229	0	0	0.06768438168934447	0.07514543912140037	-0.06477040600502187	0.0007490085365731459	1.307266508874576e-05	0.06750671712543796	0	0	0.08866780502200027	-0.08595427354639816	0.05027440680985564	-0.4436357513249952	-0.1057724486355447	0.1074349414292383	0.8271134410957462	34.45195994692941	0	0	-0.3690546432696982	-0.01489309660045473	-0.02556804078101401	0.8762929208693744	34.45195994692941	0	0
0.175	-0.0110436315132496	-0.1395429568231001	159.6295015492663	0	0.9399999999999999	0	0.03811321502116614	-0.1422444230376126	0.1570351850512883	-0.03719735893270822	-0.0006492163864218823	0.01253691145436424	0	0	0.06548500216027299	0.0865763518006846	-0.08100066121478434	0.01788892131849604	0.0003122205766379612	0.05166298399659584	0	0	0.01525939125441168	-0.1148699572637523	0.08124147446590897	-0.3849420527383655	-0.1145994913585984	0.1322442614092967	0.8198605771142203	35.98171887973226	0	0	-0.2742543929186201	-0.01129811503638393	-0.02947780655028486	0.8809377076502933	35.98171887973226	0	0
0.2	0.04285064907108339	-0.1762744695342687	159.6185429724456	0	0.9399999999999999	0	0.04042449655966148	-0.155890349503636	0.1802796993486622	-0.08151929785748284	-0.001422780151527035	0.09381735463327782	0	0	0.07270704086986923	0.1083007204005603	-0.09991150669754764	-0.03438268041293764	-0.0006000909788667254	0.1425083794051135	0	0	0.1547227467911773	-0.1219148466866421	0.0974414901936408	-0.4764522993984904	-0.1356007497361635	0.1359752315631819	0.8230842357925662	37.27537067733844	0	0	-0.3522154804966723	-0.0559804875732407	-0.008058861636724016	0.9086888559208469	37.27537067733844	0	0
0.225	-0.01916940056228368	-0.1707135416372382	159.590134600799	0	0.9399999999999999	0	0.03329203716877992	-0.1759395753017114	0.1888430176082456	-0.04788184796239355	-0.0008356958988831053	0.01958354385281084	0	0	0.07212152317803638	0.1135330346217513	-0.1446557352793563	0.00914191387158172	0.0001595564969928431	0.0858045413166168	0	0	-0.03358744066602876	-0.1335706081748961	0.132802159475318	-0.3275645122564777	-0.1289492442810937	0.1602116480000249	0.800336192218296	38.36553685065176	0	0	-0.1806052688252029	-0.04416292631148119	-0.01972496678948827	0.9085326606030858	38.36553685065176	0	0
0.25	0.006725125262586697	-0.202279986158883	159.5663777956763	0	0.9399999999999999	0	0.02121613790431778	-0.1852872250758429	0.2357049029381627	-0.09261753446575996	-0.001616480921506839	0.0941441657497073	0	0	0.0594911543312133	0.1277978591163898	-0.1381740145652904	-0.03312498393555777	-0.0005781400343457122	0.1614049822038769	0	0	0.1406248261280294	-0.165860037484709	0.1592964307935746	-0.484077659640494	-0.1290908986268567	0.1848920273535306	0.7932879826165403	39.35020688475647	0	0	-0.331933269896166	-0.05243645223592296	-0.03676387694469055	0.9289950474427947	39.35020688475647	0	0
0.275	-0.01253540919891765	-0.2435508473712822	159.553441424529	0	0.9399999999999999	0	0.0722651413291739	-0.2450464517040113	0.2320710124252143	-0.06201694747666173	-0.001082399925504136	-0.001807153005803195	0	0	0.1099287589682965	0.1504062234215006	-0.1824676951398282	-0.001406608295520822	-2.454994604270376e-05	0.07753173797882225	0	0	-0.01397590876435135	-0.2153321869816077	0.1769199128270894	-0.3088085546067337	-0.1298767761731164	0.184557271397853	0.7910824402045088	40.11002758773859	0	0	-0.1323000467513757	-0.0794271160473681	-0.0333978657914596	0.9214883385659596	40.11002758773859	0	0
0.3	0.03694316869794489	-0.254671512190266	159.5493167008747	0	0.9399999999999999	0	0.07776986208721758	-0.2273071751288914	0.2538272008961744	-0.09750049606635743	-0.001701704678685717	0.07700645444466617	0	0	0.1200860872418382	0.1412141086711538	-0.1788251905569442	-0.04133138192438252	-0.000721368698979745	0.1600857527233118	0	0	0.1390818647543408	-0.2141869837191311	0.18320594218081	-0.4292411842456992	-0.1397425435703173	0.1870767513483237	0.7946738429967595	40.97474092786253	0	0	-0.2335727010921084	-0.1129058835319821	-0.0370485981848587	0.9240010930365256	40.97474092786253	0	0
0.325	-0.03699190320182494	-0.2526534596310163	159.5391014819735	0	0.9399999999999999	0	0.0565680129749956	-0.2642612672107157	0.2483367918302503	-0.05122345494884388	-0.0008940179431043093	0.0184284538715329	0	0	0.1016687611753939	0.1633507544514051	-0.1879823091726373	-0.001891661674262416	-3.301572454966764e-05	0.1012988186608321	0	0	-0.02494042980552369	-0.2406247480543463	0.2006585835411261	-0.2924643084968561	-0.1363989832546391	0.2105008303409311	0.7674903108446434	41.59304756524241	0	0	-0.1215760266731455	-0.1188514020237452	-0.05156909684969911	0.9248245063011628	41.59304756524241	0	0
0.35	-0.04192807482585113	-0.2686961582354341	159.5214876898157	0	0.9399999999999999	0	0.03951227307892365	-0.2740266521450445	0.285021552611363	-0.06680736107111952	-0.001166008415259721	0.05468927883228419	0	0	0.08655212232381027	0.1765118296295725	-0.200257092703074	-0.01910023367246669	-0.000333361965484832	0.1397955193501804	0	0	0.05823719129482942	-0.273989259846573	0.2232772958798913	-0.3818734133086741	-0.1302533215571279	0.2203309163064982	0.772847182103457	42.12589902799615	0	0	-0.2099942349007247	-0.142317404300785	-0.0553223111819017	0.9316525455397127	42.12589902799615	0	0
0.375	-0.07585352276980015	-0.2741555588815371	159.5141793678969	0	0.9399999999999999	0	0.04434476450434275	-0.2955359575789052	0.286000844345758	-0.04081804592364781	-0.0007124092955979042	0.01654041309012491	0	0	0.09976998610871046	0.1877258505509837	-0.1954503452648343	0.006126605102298855	0.000106929431004599	0.1043887885797738	0	0	-0.02879713506995437	-0.2990603007009764	0.2543744505907946	-0.3066728159635098	-0.1191889965939177	0.2303457220482784	0.7730007327483119	42.57237996834422	0	0	-0.1324890856252447	-0.1282764369110335	-0.03904256175037413	0.9115010078666101	42.57237996834422	0	0
0.4	-0.1099805130270061	-0.2804214891510541	159.5174696301532	0	0.9399999999999999	0	0.02501944712802117	-0.3096442554906366	0.2617917453824952	-0.03124605725828037	-0.0005453465774236647	0.03791200905900225	0	0	0.0622548153886219	0.1919073208777558	-0.2272021026112014	0.01183187959746515	0.0002065052556753082	0.1172106616724131	0	0	-0.02742375085963528	-0.3408566823992862	0.2535268814657687	-0.3460762616717913	-0.1251537197505889	0.21141720730089	0.7744698956504423	42.91946406440677	0	0	-0.1609545549677312	-0.1604291197425044	-0.05031542459245147	0.904546931113421	42.91946406440677	0	0
0.425	-0.06658651883448502	-0.3028132312058915	159.515831774333	0	0.9399999999999999	0	0.02344075484797372	-0.3091349797381033	0.3021079409414016	-0.06872005616501151	-0.001199391242234878	0.1123513538390213	0	0	0.05770416229384016	0.1958623029136806	-0.1986870400875812	-0.03434499319510054	-0.0005994332128295515	0.1917041270491618	0	0	0.1655587063983645	-0.3621767872954557	0.2593173176691924	-0.510673631522007	-0.1238483703388843	0.2177567234120609	0.7809551630188233	43.22095678464248	0	0	-0.3179065058842546	-0.1603259950122438	-0.06980934293209592	0.9126054256057515	43.22095678464248	0	0
0.45	-0.1130183061174996	-0.3138738991353485	159.5293915713614	0	0.9399999999999999	0	0.05254030989532291	-0.3258181418628913	0.2703573317706976	-0.02863698585680048	-0.0004998096910482178	0.02097385103781093	0	0	0.08704989281350403	0.1959450149078523	-0.2156881485179466	0.00465551434612625	8.125405371373399e-05	0.1072919329327666	0	0	0.04026999351530752	-0.4265673187297901	0.2959357003280214	-0.396083516986648	-0.09059191767905213	0.186581226081659	0.7447750302620695	43.48144727752265	0	0	-0.1811604070394856	-0.1388956479523221	-0.04936690579572271	0.8667693173743898	43.48144727752265	0	0
